# xmcd
#
# Track frame offsets: 
#        150
#        23182
#        38505
#        50530
#
# Disc length: 880 seconds
#
# Revision: 0
# Processed by: cddbd v1.5.1PL0 Copyright (c) Steve Scherf et al.
# Submitted via: ExactAudioCopy v0.95b2
#
DISCID=27036e04
DTITLE=Sammy West - Feuer in der Seele
DYEAR=1999
DGENRE=Country
TTITLE0=01 - Feuer in der Seele
TTITLE1=02 - Halt mich einfach nur fest
TTITLE2=03 - Wilde Pferde, weites Land
TTITLE3=04 - Mein Kind
EXTD=
EXTT0=
EXTT1=
EXTT2=
EXTT3=
PLAYORDER=
